HIERARCHY
ROOT Hips
{
	OFFSET 4.076200 -17.275196 43.303001
	CHANNELS 6 Xposition Yposition Zposition Zrotation Xrotation Yrotation
	JOINT Chest
	{
		OFFSET -0.689800 0.941999 5.341000
		CHANNELS 6 Xposition Yposition Zposition Zrotation Xrotation Yrotation
		JOINT Chest2
		{
			OFFSET 0.000000 0.000000 4.278900
			CHANNELS 6 Xposition Yposition Zposition Zrotation Xrotation Yrotation
			JOINT Neck
			{
				OFFSET 0.000000 0.000000 9.970299
				CHANNELS 6 Xposition Yposition Zposition Zrotation Xrotation Yrotation
				JOINT Head
				{
					OFFSET 0.000000 0.000002 2.173901
					CHANNELS 6 Xposition Yposition Zposition Zrotation Xrotation Yrotation
					End Site
					{
						OFFSET 0.000000 0.000000 6.488197
					}
				}
			}
			JOINT LeftCollar
			{
				OFFSET 2.472300 -0.285801 5.433899
				CHANNELS 6 Xposition Yposition Zposition Zrotation Xrotation Yrotation
				JOINT LeftShoulder
				{
					OFFSET 5.327700 0.000000 0.000000
					CHANNELS 6 Xposition Yposition Zposition Zrotation Xrotation Yrotation
					JOINT LeftElbow
					{
						OFFSET 0.000000 0.000000 -10.713001
						CHANNELS 6 Xposition Yposition Zposition Zrotation Xrotation Yrotation
						JOINT LeftWrist
						{
							OFFSET 0.000000 -0.000002 -13.396900
							CHANNELS 6 Xposition Yposition Zposition Zrotation Xrotation Yrotation
							End Site
							{
								OFFSET 0.000000 0.000000 -2.173901
							}
						}
					}
				}
			}
			JOINT RightCollar
			{
				OFFSET -2.589400 -1.358400 6.105000
				CHANNELS 6 Xposition Yposition Zposition Zrotation Xrotation Yrotation
				JOINT RightShoulder
				{
					OFFSET -4.580200 0.000000 0.000000
					CHANNELS 6 Xposition Yposition Zposition Zrotation Xrotation Yrotation
					JOINT RightElbow
					{
						OFFSET 0.000000 0.000000 -10.761101
						CHANNELS 6 Xposition Yposition Zposition Zrotation Xrotation Yrotation
						JOINT RightWrist
						{
							OFFSET 0.000000 -0.000002 -13.028500
							CHANNELS 6 Xposition Yposition Zposition Zrotation Xrotation Yrotation
							End Site
							{
								OFFSET 0.000000 0.000000 -2.173901
							}
						}
					}
				}
			}
		}
	}
	JOINT LeftHip
	{
		OFFSET 2.532500 0.486900 -2.489700
		CHANNELS 6 Xposition Yposition Zposition Zrotation Xrotation Yrotation
		JOINT LeftKnee
		{
			OFFSET 0.000000 -0.000002 -18.199398
			CHANNELS 6 Xposition Yposition Zposition Zrotation Xrotation Yrotation
			JOINT LeftAnkle
			{
				OFFSET 0.000000 -0.000002 -16.083900
				CHANNELS 6 Xposition Yposition Zposition Zrotation Xrotation Yrotation
				End Site
				{
					OFFSET 0.000000 -8.641399 0.000000
				}
			}
		}
	}
	JOINT RightHip
	{
		OFFSET -2.112700 -0.049900 -2.711102
		CHANNELS 6 Xposition Yposition Zposition Zrotation Xrotation Yrotation
		JOINT RightKnee
		{
			OFFSET 0.000000 -0.000002 -19.127298
			CHANNELS 6 Xposition Yposition Zposition Zrotation Xrotation Yrotation
			JOINT RightAnkle
			{
				OFFSET 0.000000 -0.000002 -14.874901
				CHANNELS 6 Xposition Yposition Zposition Zrotation Xrotation Yrotation
				End Site
				{
					OFFSET 0.000000 -8.198299 0.000000
				}
			}
		}
	}
}
MOTION
Frames: 5
Frame Time: 0.041667
-0.757401 9.768208 37.117302 -406.783500 41.390974 26.788161 -0.689798 0.942000 5.341000 -31.137429 -11.289240 21.909585 -0.000001 0.000000 4.278905 5.553087 -7.040627 -0.932313 0.000003 -0.000004 9.970302 53.282705 4.892344 -23.393973 0.000000 -0.000004 2.173897 5.553505 3.174580 8.726130 2.472305 -0.285804 5.433896 -16.431560 4.972375 10.926279 5.327704 -0.000002 -0.000003 -20.547306 23.196799 -68.496252 0.000001 -0.000001 -10.713000 -12.941450 6.818700 -8.175187 0.000001 -0.000001 -13.396901 245.267831 -11.789749 6.784645 -2.589401 -1.358401 6.104998 -8.303043 -7.922007 15.532094 -4.580199 0.000001 0.000002 8.601277 -35.158457 119.712179 0.000000 -0.000001 -10.761095 -147.673635 -39.154889 -167.691280 -0.000005 -0.000005 -13.028500 202.075108 175.337253 141.121967 2.532506 0.486894 -2.489696 141.957217 -28.334683 92.630295 -0.000001 -0.000001 -18.199400 -158.220253 41.879086 119.805083 0.000000 0.000001 -16.083900 4.055746 47.091337 41.323935 -2.112698 -0.049906 -2.711097 -60.271481 -46.197388 -74.888694 -0.000002 0.000003 -19.127298 200.903034 113.531104 -196.216978 -0.000000 -0.000002 -14.874902 -11.748010 17.384686 22.765577
-0.732701 9.751303 37.205200 -406.624876 41.606090 26.245372 -0.689802 0.942001 5.340997 -30.492625 -11.536561 22.442272 -0.000001 0.000000 4.278900 5.378482 -6.975082 -0.922680 -0.000002 0.000000 9.970296 52.818720 4.583024 -23.833247 -0.000001 0.000002 2.173890 5.002936 3.377971 9.383458 2.472297 -0.285802 5.433898 -16.969400 5.278522 10.098561 5.327700 -0.000002 -0.000001 -24.395974 33.272549 -67.131190 0.000001 0.000000 -10.713001 -14.493735 5.471790 -6.831179 -0.000002 -0.000001 -13.396903 247.098322 -11.435973 5.541343 -2.589403 -1.358400 6.105002 -8.713557 -8.538332 15.186915 -4.580207 -0.000001 -0.000002 8.992873 -33.594938 119.606229 -0.000000 0.000001 -10.761096 -146.375680 -39.556395 -166.141797 -0.000001 -0.000001 -13.028501 198.143815 173.899553 135.626848 2.532503 0.486901 -2.489702 141.145272 -28.695353 92.290185 -0.000002 -0.000001 -18.199396 -158.046602 42.710887 119.893493 -0.000001 0.000002 -16.083900 2.541883 47.568081 40.747321 -2.112700 -0.049906 -2.711106 -60.613660 -46.196278 -74.802203 0.000001 0.000002 -19.127296 199.903217 113.441075 -195.024509 0.000000 -0.000002 -14.874901 -11.240699 17.636392 22.664646
-0.759500 9.688906 37.290298 -406.222605 40.959077 25.966091 -0.689799 0.942002 5.340995 -30.237271 -11.087541 22.288138 -0.000002 0.000001 4.278899 5.396059 -7.126049 -0.943904 0.000004 0.000001 9.970294 52.922778 5.163572 -23.734240 -0.000000 -0.000002 2.173892 5.157653 3.194331 9.231504 2.472305 -0.285803 5.433896 -17.317050 5.662990 10.864180 5.327700 -0.000002 0.000000 -25.018759 35.185023 -68.261901 -0.000000 0.000000 -10.712994 -22.403857 6.038995 -6.020156 -0.000001 -0.000005 -13.396902 246.067291 -11.114336 -0.696090 -2.589396 -1.358398 6.105003 -8.366007 -7.830043 15.675643 -4.580203 -0.000001 -0.000001 9.833404 -33.710989 119.828975 0.000001 0.000002 -10.761092 -144.420170 -41.056837 -164.923373 -0.000002 -0.000002 -13.028497 193.335553 174.511688 132.323591 2.532504 0.486903 -2.489701 140.715311 -29.345549 91.689067 -0.000000 0.000000 -18.199396 -158.286260 43.046799 119.661089 -0.000001 -0.000000 -16.083900 1.529336 47.460652 41.072335 -2.112699 -0.049900 -2.711103 -59.799105 -45.523269 -73.801014 -0.000001 0.000003 -19.127302 199.398330 113.735586 -193.989202 0.000000 0.000001 -14.874899 -10.934569 17.769396 22.576396
-0.731101 9.624403 37.399899 -405.616467 41.593509 25.210242 -0.689799 0.942002 5.340999 -30.741664 -11.892408 22.421220 -0.000004 0.000002 4.278893 5.200824 -6.809376 -0.900250 0.000002 -0.000003 9.970301 52.941240 4.991058 -24.230844 0.000001 -0.000003 2.173891 5.218967 3.297136 9.716900 2.472296 -0.285801 5.433907 -16.532770 4.972755 9.648329 5.327693 0.000001 0.000004 -26.941901 35.164358 -67.439683 0.000001 0.000001 -10.713001 -29.339020 7.172271 -5.645406 -0.000002 -0.000003 -13.396900 242.744923 -10.208778 -5.748221 -2.589396 -1.358400 6.105002 -8.160971 -8.360671 15.290816 -4.580196 0.000000 -0.000005 10.824633 -32.517653 119.799387 0.000001 -0.000003 -10.761095 -144.454403 -42.778670 -164.761361 -0.000003 -0.000001 -13.028500 187.128469 174.402679 128.933795 2.532503 0.486904 -2.489696 139.404735 -29.080463 91.317812 -0.000001 -0.000001 -18.199402 -152.845031 30.110855 113.016907 -0.000000 -0.000002 -16.083900 11.331172 39.175749 56.172859 -2.112698 -0.049899 -2.711102 -59.897890 -46.423908 -73.357393 -0.000000 0.000005 -19.127300 198.214111 114.165663 -193.365715 0.000000 -0.000003 -14.874900 -10.694098 17.908447 22.492580
-0.748099 9.570005 37.496201 -405.511528 40.271694 25.400164 -0.689800 0.942000 5.340993 -28.648166 -10.159269 23.084257 -0.000005 -0.000004 4.278906 4.484776 -6.758723 -0.894362 0.000006 -0.000001 9.970294 52.237563 4.636500 -24.763607 0.000000 0.000005 2.173892 4.936290 3.670997 9.604097 2.472305 -0.285804 5.433897 -17.788719 5.679917 7.901714 5.327694 -0.000001 0.000001 -27.100978 30.021980 -67.305695 0.000001 0.000000 -10.712997 -37.366076 8.203459 -4.683373 -0.000000 -0.000002 -13.396899 238.547034 -8.832485 -9.865547 -2.589389 -1.358402 6.105000 -8.619839 -9.781819 15.358266 -4.580194 0.000000 -0.000009 11.422160 -30.193794 119.459968 0.000000 -0.000004 -10.761091 -142.298604 -43.788414 -163.055480 -0.000000 -0.000007 -13.028499 183.862873 173.934046 125.728661 2.532504 0.486901 -2.489698 139.342921 -30.457207 90.922515 0.000001 -0.000000 -18.199398 -153.285810 30.548024 112.971821 0.000002 -0.000004 -16.083897 9.562193 39.418224 56.717662 -2.112698 -0.049903 -2.711103 -58.134192 -45.467579 -71.648766 0.000001 0.000005 -19.127298 197.164503 114.333084 -192.455388 0.000000 -0.000001 -14.874899 -10.193674 17.884254 22.565553
